<svg xmlns="http://www.w3.org/2000/svg" width="130" height="114" viewBox="0 0 130 114"><polygon points="1,33 65,65 65,113 1,81" fill="#B98454" stroke="#B98454" stroke-width="2" stroke-linejoin="round"/><polygon points="1,68 65,100 65,113 1,81" fill="#A47247" stroke="#A47247" stroke-width="2" stroke-linejoin="round"/><path d="M12.2 57.6L20.5 61.8Q22.8 62.9 22.8 64.7L22.8 66.1Q22.8 67.9 20.5 66.8L12.2 62.6Q10 61.5 10 59.7L10 58.3Q10 56.5 12.2 57.6Z" fill="#CD9C6B"/><path d="M39.1 77L51.2 83.1Q53.5 84.2 53.5 86L53.5 87.4Q53.5 89.2 51.2 88.1L39.1 82Q36.8 80.9 36.8 79.1L36.8 77.7Q36.8 75.9 39.1 77Z" fill="#CD9C6B"/><path d="M22.4 82.7L28.2 85.6Q30.4 86.7 30.4 88.5L30.4 88.9Q30.4 90.7 28.2 89.6L22.4 86.7Q20.2 85.6 20.2 83.8L20.2 83.4Q20.2 81.6 22.4 82.7Z" fill="#CD9C6B"/><path d="M1 32.5L65 64.5L65 74Q56 75.5 47.1 65Q40 70.5 33 58Q24.7 58.8 16.4 49.7Q8.7 53.8 1 42Z" fill="#8BC749" stroke="#8BC749" stroke-width="2" stroke-linejoin="round"/><polygon points="65,65 129,33 129,81 65,113" fill="#996A42" stroke="#996A42" stroke-width="2" stroke-linejoin="round"/><polygon points="65,100 129,68 129,81 65,113" fill="#84593A" stroke="#84593A" stroke-width="2" stroke-linejoin="round"/><path d="M104.4 63.3L115.2 57.9Q117.5 56.8 117.5 58.6L117.5 60Q117.5 61.8 115.2 62.9L104.4 68.3Q102.1 69.4 102.1 67.6L102.1 66.2Q102.1 64.4 104.4 63.3Z" fill="#AE7E52"/><path d="M74.9 86L84.5 81.2Q86.8 80.1 86.8 81.9L86.8 83.3Q86.8 85.1 84.5 86.2L74.9 91Q72.7 92.2 72.7 90.4L72.7 89Q72.7 87.2 74.9 86Z" fill="#AE7E52"/><path d="M99.2 87.9L106.3 84.4Q108.5 83.2 108.5 85L108.5 85.4Q108.5 87.2 106.3 88.4L99.2 91.9Q97 93 97 91.2L97 90.8Q97 89 99.2 87.9Z" fill="#AE7E52"/><path d="M65 64.5L129 32.5L129 42Q122 53.5 114.9 49Q106.6 58.2 98.3 57.4Q91.2 69.9 84.2 64.4Q74.6 75.2 65 74Z" fill="#72AE3B" stroke="#72AE3B" stroke-width="2" stroke-linejoin="round"/><polygon points="65,1 129,33 65,65 1,33" fill="#A8DB5E" stroke="#A8DB5E" stroke-width="2" stroke-linejoin="round"/></svg>
