<svg xmlns="http://www.w3.org/2000/svg" width="128" height="176" viewBox="0 0 128 176"><ellipse cx="67.6" cy="143.1" rx="30.8" ry="15.4" fill="#1F3D12" fill-opacity="0.22"/><path d="M57.7 144A6.3 3.2 0 0 0 70.3 144L68.5 81.3A4.5 2.3 0 0 0 59.5 81.3Z" fill="#F1ECE2"/><path d="M68.1 146.4A6.3 3.2 0 0 0 70.3 144L68.5 81.3A4.5 2.3 0 0 1 66.9 83Z" fill="#CEC6B7"/><path d="M60.5 139.2l5 1.1" fill="none" stroke="#4B4038" stroke-width="1.8" stroke-linecap="round"/><path d="M64.5 128.2l4 0.9" fill="none" stroke="#4B4038" stroke-width="1.8" stroke-linecap="round"/><path d="M60 118.8l4.5 1" fill="none" stroke="#4B4038" stroke-width="1.8" stroke-linecap="round"/><path d="M63.5 107.8l3.5 0.8" fill="none" stroke="#4B4038" stroke-width="1.8" stroke-linecap="round"/><ellipse cx="65.8" cy="73.9" rx="27.2" ry="29.2" fill="#DE952A"/><ellipse cx="62.7" cy="69.1" rx="21.7" ry="23.4" fill="#F4BC3E"/><ellipse cx="59.6" cy="64.3" rx="9.2" ry="9.9" fill="#FBDA70"/><ellipse cx="75.8" cy="48.4" rx="19.9" ry="23.4" fill="#DE952A"/><ellipse cx="73.5" cy="44.5" rx="15.9" ry="18.7" fill="#F4BC3E"/><ellipse cx="71.2" cy="40.7" rx="6.8" ry="8" fill="#FBDA70"/><ellipse cx="53.1" cy="61.4" rx="22.6" ry="26.1" fill="#DE952A"/><ellipse cx="50.6" cy="57.1" rx="18.1" ry="20.9" fill="#F4BC3E"/><ellipse cx="48" cy="52.8" rx="7.7" ry="8.9" fill="#FBDA70"/><ellipse cx="64" cy="34.5" rx="16.3" ry="21.2" fill="#DE952A"/><ellipse cx="62.1" cy="31" rx="13" ry="17" fill="#F4BC3E"/><ellipse cx="60.3" cy="27.5" rx="5.5" ry="7.2" fill="#FBDA70"/></svg>
